<?xml version="1.0" encoding="utf-8"?>
<!-- Generator: Adobe Illustrator 23.1.1, SVG Export Plug-In . SVG Version: 6.00 Build 0)  -->
<svg version="1.1" id="Layer_1" xmlns="http://www.w3.org/2000/svg" xmlns:xlink="http://www.w3.org/1999/xlink" x="0px" y="0px"
	 viewBox="0 0 1440 1440" style="enable-background:new 0 0 1440 1440;" xml:space="preserve">
<style type="text/css">
	.st0{fill:#010101;}
	.st1{fill:#7F8080;}
	.st2{fill:#FFFFFF;stroke:#010101;stroke-miterlimit:10;}
	.st3{fill:#FFFFFF;stroke:#000000;stroke-miterlimit:10;}
	.st4{display:none;fill:#416AB3;}
	.st5{fill:#416AB3;}
	.st6{font-family:'MyriadPro-Regular';}
	.st7{font-size:18px;}
</style>
<path id="main_shape" class="st0" d="M719.8,360.5C540.9,360.5,392.5,491,364.6,662H338v117h26.6c27.9,171,176.4,301.5,355.3,301.5
	c198.8,0,360-161.2,360-360S918.7,360.5,719.8,360.5z"/>
<g id="vesa_mounting_holes">
	<g>
		<g>
			<circle class="st1" cx="578" cy="578" r="11.2"/>
			<circle class="st2" cx="578.2" cy="578.2" r="6.8"/>
		</g>
		<g>
			<circle class="st1" cx="862" cy="578" r="11.2"/>
			<circle class="st2" cx="862.2" cy="578.2" r="6.8"/>
		</g>
		<g>
			<circle class="st1" cx="862" cy="862" r="11.2"/>
			<circle class="st2" cx="862.2" cy="862.2" r="6.8"/>
		</g>
		<g>
			<circle class="st1" cx="578" cy="862" r="11.2"/>
			<circle class="st2" cx="578.2" cy="862.2" r="6.8"/>
		</g>
	</g>
</g>
<g id="center_bearing_and_bore">
	<circle class="st1" cx="720" cy="720" r="31.5"/>
	<circle class="st3" cx="720" cy="720" r="12.4"/>
</g>
<circle class="st4" cx="720" cy="720" r="360"/>
<g id="text">
	<text transform="matrix(1 0 0 1 666.4325 651.8831)"><tspan x="0" y="0" class="st5 st6 st7">bore: 11/32”</tspan><tspan x="0" y="21.6" class="st5 st6 st7">counter: 11/32”</tspan></text>
	<text transform="matrix(1 0 0 1 576.4325 531.283)"><tspan x="0" y="0" class="st5 st6 st7">bore: 3/16”</tspan><tspan x="0" y="21.6" class="st5 st6 st7">counter: 5/16”</tspan></text>
</g>
<g id="susan_holes">
	<circle class="st2" cx="517.5" cy="922.5" r="9"/>
	<circle class="st2" cx="921.5" cy="922.5" r="9"/>
	<circle class="st2" cx="921.5" cy="517.5" r="9"/>
	<circle class="st2" cx="517.5" cy="517.5" r="9"/>
</g>
</svg>
